<svg width="36" height="28" viewBox="0 0 36 28" fill="none" xmlns="http://www.w3.org/2000/svg">
<path d="M34.98 0H6.6C6.06 0 5.58 0.485901 5.58 1.03254V22.4121C5.58 23.2625 4.8 23.9306 3.96 23.8091C3.24 23.6876 2.76 23.0195 2.76 22.3514V7.04555C2.76 6.62039 2.46 6.3167 2.04 6.3167H1.02C0.48 6.3167 0 6.8026 0 7.34924V25.2061C0 26.7245 1.26 28 2.76 28H5.52H33.24C34.74 28 36 26.7245 36 25.2061V1.09328C36 0.485901 35.52 0 34.98 0ZM19.38 20.3471C19.38 20.7722 19.08 21.0759 18.66 21.0759H10.38C9.96 21.0759 9.66 20.7722 9.66 20.3471V18.9501C9.66 18.5249 9.96 18.2213 10.38 18.2213H18.66C19.08 18.2213 19.38 18.5249 19.38 18.9501V20.3471ZM19.38 14.7592C19.38 15.1844 19.08 15.4881 18.66 15.4881H10.38C9.96 15.4881 9.66 15.1844 9.66 14.7592V13.3623C9.66 12.9371 9.96 12.6334 10.38 12.6334H18.66C19.08 12.6334 19.38 12.9371 19.38 13.3623V14.7592ZM31.86 20.3471C31.86 20.7722 31.56 21.0759 31.14 21.0759H22.86C22.44 21.0759 22.14 20.7722 22.14 20.3471V18.9501C22.14 18.5249 22.44 18.2213 22.86 18.2213H31.14C31.56 18.2213 31.86 18.5249 31.86 18.9501V20.3471V20.3471ZM31.86 14.7592C31.86 15.1844 31.56 15.4881 31.14 15.4881H22.86C22.44 15.4881 22.14 15.1844 22.14 14.7592V13.3623C22.14 12.9371 22.44 12.6334 22.86 12.6334H31.14C31.56 12.6334 31.86 12.9371 31.86 13.3623V14.7592V14.7592ZM31.86 9.11063C31.86 9.53579 31.56 9.83948 31.14 9.83948H10.38C9.96 9.83948 9.66 9.53579 9.66 9.11063V4.91974C9.66 4.49458 9.96 4.19089 10.38 4.19089H31.14C31.56 4.19089 31.86 4.49458 31.86 4.91974V9.11063V9.11063Z" fill="#FC6456"/>
</svg>

